<?xml version="1.0" encoding="UTF-8" standalone="no"?>
<svg
   xmlns:dc="http://purl.org/dc/elements/1.1/"
   xmlns:cc="http://creativecommons.org/ns#"
   xmlns:rdf="http://www.w3.org/1999/02/22-rdf-syntax-ns#"
   xmlns:svg="http://www.w3.org/2000/svg"
   xmlns="http://www.w3.org/2000/svg"
   xmlns:sodipodi="http://sodipodi.sourceforge.net/DTD/sodipodi-0.dtd"
   xmlns:inkscape="http://www.inkscape.org/namespaces/inkscape"
   width="600"
   height="600"
   version="1.1"
   id="svg18"
   sodipodi:docname="Flashing Arrows.svg"
   inkscape:version="0.92.4 (5da689c313, 2019-01-14)">
  <metadata
     id="metadata24">
    <rdf:RDF>
      <cc:Work
         rdf:about="">
        <dc:format>image/svg+xml</dc:format>
        <dc:type
           rdf:resource="http://purl.org/dc/dcmitype/StillImage" />
        <dc:title></dc:title>
        <cc:license
           rdf:resource="" />
      </cc:Work>
    </rdf:RDF>
  </metadata>
  <defs
     id="defs22" />
  <sodipodi:namedview
     pagecolor="#ffffff"
     bordercolor="#666666"
     borderopacity="1"
     objecttolerance="10"
     gridtolerance="10"
     guidetolerance="10"
     inkscape:pageopacity="0"
     inkscape:pageshadow="2"
     inkscape:window-width="1920"
     inkscape:window-height="1057"
     id="namedview20"
     showgrid="false"
     inkscape:zoom="1.5725403"
     inkscape:cx="270.59516"
     inkscape:cy="308.86816"
     inkscape:window-x="1272"
     inkscape:window-y="-8"
     inkscape:window-maximized="1"
     inkscape:current-layer="svg18"
     showguides="true"
     inkscape:guide-bbox="true"
     inkscape:snap-object-midpoints="false"
     inkscape:snap-bbox="true"
     inkscape:snap-bbox-midpoints="true">
    <sodipodi:guide
       position="0,300"
       orientation="0,1"
       id="guide834"
       inkscape:locked="false"
       inkscape:label=""
       inkscape:color="rgb(0,0,255)" />
    <sodipodi:guide
       position="300,300"
       orientation="1,0"
       id="guide836"
       inkscape:locked="false"
       inkscape:label=""
       inkscape:color="rgb(0,0,255)" />
  </sodipodi:namedview>
  <path
     fill="none"
     stroke="#000"
     stroke-width="5.429"
     d="M5.267 5.276h589.689v589.68H5.267z"
     id="path2" />
  <ellipse
     cx="543.22351"
     cy="56.586304"
     rx="22.881001"
     ry="23.473"
     id="ellipse4"
     style="fill:none;stroke:#000000;stroke-width:5.5710001" />
  <path
     d="M 218.64675,218.16632 H 381.83368 V 381.35325 H 218.64675 Z"
     id="path6"
     inkscape:connector-curvature="0"
     style="stroke:#000000;stroke-width:5.60481119;stroke-miterlimit:4;stroke-dasharray:none" />
  <path
     sodipodi:type="star"
     style="fill:#000000;fill-opacity:1;fill-rule:evenodd;stroke:#000000;stroke-width:4.50333548;stroke-linecap:square;stroke-linejoin:miter;stroke-miterlimit:4;stroke-dasharray:none;stroke-dashoffset:0;stroke-opacity:1"
     id="path840"
     sodipodi:sides="3"
     sodipodi:cx="300"
     sodipodi:cy="155.77757"
     sodipodi:r1="82.337059"
     sodipodi:r2="41.16853"
     sodipodi:arg1="-1.5707963"
     sodipodi:arg2="-0.52359878"
     inkscape:flatsided="true"
     inkscape:rounded="0"
     inkscape:randomized="0"
     d="m 300,73.440514 71.30598,123.505586 -142.61197,0 z"
     inkscape:transform-center-y="-22.701604"
     inkscape:transform-center-x="9.0983212e-06"
     transform="matrix(1.1177647,0,0,1.1028616,-35.089193,-33.143067)" />
  <path
     transform="matrix(0,1.1177647,-1.1028616,0,633.14306,-35.569625)"
     inkscape:transform-center-x="-22.701594"
     inkscape:transform-center-y="-8.8939055e-06"
     d="m 300,73.440514 71.30598,123.505586 -142.61197,0 z"
     inkscape:randomized="0"
     inkscape:rounded="0"
     inkscape:flatsided="true"
     sodipodi:arg2="-0.52359878"
     sodipodi:arg1="-1.5707963"
     sodipodi:r2="41.16853"
     sodipodi:r1="82.337059"
     sodipodi:cy="155.77757"
     sodipodi:cx="300"
     sodipodi:sides="3"
     id="path1496"
     style="fill:#666666;fill-opacity:1;fill-rule:evenodd;stroke:#000000;stroke-width:4.50333548;stroke-linecap:square;stroke-linejoin:miter;stroke-miterlimit:4;stroke-dasharray:none;stroke-dashoffset:0;stroke-opacity:1"
     sodipodi:type="star" />
  <path
     transform="matrix(-1.1177647,0,0,-1.1028616,635.56963,636.97799)"
     inkscape:transform-center-x="-9.2177135e-06"
     inkscape:transform-center-y="22.701612"
     d="m 300,73.440514 71.30598,123.505586 -142.61197,0 z"
     inkscape:randomized="0"
     inkscape:rounded="0"
     inkscape:flatsided="true"
     sodipodi:arg2="-0.52359878"
     sodipodi:arg1="-1.5707963"
     sodipodi:r2="41.16853"
     sodipodi:r1="82.337059"
     sodipodi:cy="155.77757"
     sodipodi:cx="300"
     sodipodi:sides="3"
     id="path1500"
     style="fill:#666666;fill-opacity:1;fill-rule:evenodd;stroke:#000000;stroke-width:4.50333548;stroke-linecap:square;stroke-linejoin:miter;stroke-miterlimit:4;stroke-dasharray:none;stroke-dashoffset:0;stroke-opacity:1"
     sodipodi:type="star" />
  <path
     sodipodi:type="star"
     style="fill:#666666;fill-opacity:1;fill-rule:evenodd;stroke:#000000;stroke-width:4.50333548;stroke-linecap:square;stroke-linejoin:miter;stroke-miterlimit:4;stroke-dasharray:none;stroke-dashoffset:0;stroke-opacity:1"
     id="path1502"
     sodipodi:sides="3"
     sodipodi:cx="300"
     sodipodi:cy="155.77757"
     sodipodi:r1="82.337059"
     sodipodi:r2="41.16853"
     sodipodi:arg1="-1.5707963"
     sodipodi:arg2="-0.52359878"
     inkscape:flatsided="true"
     inkscape:rounded="0"
     inkscape:randomized="0"
     d="m 300,73.440514 71.30598,123.505586 -142.61197,0 z"
     inkscape:transform-center-y="8.5721214e-06"
     inkscape:transform-center-x="22.701604"
     transform="matrix(0,-1.1177647,1.1028616,0,-36.97798,635.08921)" />
  <g
     aria-label="00"
     style="font-style:normal;font-weight:normal;font-size:96px;line-height:1.25;font-family:sans-serif;text-align:center;letter-spacing:0px;word-spacing:0px;text-anchor:middle;fill:#ffffff;fill-opacity:1;stroke:none"
     id="text829">
    <path
       d="m 293.81833,299.71292 q 0,18.79688 -5.90625,27.60938 -5.85938,8.76562 -18.23438,8.76562 -12.5625,0 -18.375,-8.90625 -5.76562,-8.90625 -5.76562,-27.375 0,-18.60937 5.85937,-27.46875 5.85938,-8.90625 18.28125,-8.90625 12.5625,0 18.32813,9.04688 5.8125,9 5.8125,27.23437 z m -12.32813,21.28125 q 1.64063,-3.79687 2.20313,-8.90625 0.60937,-5.15625 0.60937,-12.375 0,-7.125 -0.60937,-12.375 -0.5625,-5.25 -2.25,-8.90625 -1.64063,-3.60937 -4.5,-5.4375 -2.8125,-1.82812 -7.26563,-1.82812 -4.40625,0 -7.3125,1.82812 -2.85937,1.82813 -4.54687,5.53125 -1.59375,3.46875 -2.20313,9.04688 -0.5625,5.57812 -0.5625,12.23437 0,7.3125 0.51563,12.23438 0.51562,4.92187 2.20312,8.8125 1.54688,3.65625 4.35938,5.57812 2.85937,1.92188 7.54687,1.92188 4.40625,0 7.3125,-1.82813 2.90625,-1.82812 4.5,-5.53125 z"
       style=""
       id="path831" />
    <path
       d="m 354.94333,299.71292 q 0,18.79688 -5.90625,27.60938 -5.85938,8.76562 -18.23438,8.76562 -12.5625,0 -18.375,-8.90625 -5.76562,-8.90625 -5.76562,-27.375 0,-18.60937 5.85937,-27.46875 5.85938,-8.90625 18.28125,-8.90625 12.5625,0 18.32813,9.04688 5.8125,9 5.8125,27.23437 z m -12.32813,21.28125 q 1.64063,-3.79687 2.20313,-8.90625 0.60937,-5.15625 0.60937,-12.375 0,-7.125 -0.60937,-12.375 -0.5625,-5.25 -2.25,-8.90625 -1.64063,-3.60937 -4.5,-5.4375 -2.8125,-1.82812 -7.26563,-1.82812 -4.40625,0 -7.3125,1.82812 -2.85937,1.82813 -4.54687,5.53125 -1.59375,3.46875 -2.20313,9.04688 -0.5625,5.57812 -0.5625,12.23437 0,7.3125 0.51563,12.23438 0.51562,4.92187 2.20312,8.8125 1.54688,3.65625 4.35938,5.57812 2.85937,1.92188 7.54687,1.92188 4.40625,0 7.3125,-1.82813 2.90625,-1.82812 4.5,-5.53125 z"
       style=""
       id="path833" />
  </g>
</svg>
